<?xml version="1.0"?>
<!-- Created by MetaPost 2.00 on 2025.04.20:1949 -->
<svg version="1.1" xmlns="http://www.w3.org/2000/svg" xmlns:xlink="http://www.w3.org/1999/xlink" width="81.002472" height="26.011490" viewBox="0 0 81.002472 26.011490">
<!-- Original BoundingBox: -0.250000 -10.171143 80.752472 15.840347 -->
  <path d="M0.000000 15.000000L5.669205 15.000000L5.669205 9.330795L0.000000 9.330795Z" style="stroke:rgb(0.000000%,0.000000%,0.000000%); stroke-width: 0.500000;stroke-linecap: round;stroke-linejoin: round;stroke-miterlimit: 10.000000;fill: none;"></path>
  <path d="M6.803024 15.000000L12.472229 15.000000L12.472229 9.330795L6.803024 9.330795Z" style="stroke:rgb(0.000000%,0.000000%,0.000000%); stroke-width: 0.500000;stroke-linecap: round;stroke-linejoin: round;stroke-miterlimit: 10.000000;fill: none;"></path>
  <path d="M13.606049 15.000000L19.275253 15.000000L19.275253 9.330795L13.606049 9.330795Z" style="stroke:rgb(0.000000%,0.000000%,0.000000%); stroke-width: 0.500000;stroke-linecap: round;stroke-linejoin: round;stroke-miterlimit: 10.000000;fill: none;"></path>
  <path d="M20.409073 15.000000L26.078278 15.000000L26.078278 9.330795L20.409073 9.330795Z" style="stroke:rgb(0.000000%,0.000000%,0.000000%); stroke-width: 0.500000;stroke-linecap: round;stroke-linejoin: round;stroke-miterlimit: 10.000000;fill: none;"></path>
  <path d="M27.212097 15.000000L32.881302 15.000000L32.881302 9.330795L27.212097 9.330795Z" style="stroke:rgb(0.000000%,0.000000%,0.000000%); stroke-width: 0.500000;stroke-linecap: round;stroke-linejoin: round;stroke-miterlimit: 10.000000;fill: none;"></path>
  <path d="M34.015121 15.000000L39.684326 15.000000L39.684326 9.330795L34.015121 9.330795Z" style="stroke:rgb(0.000000%,0.000000%,0.000000%); stroke-width: 0.500000;stroke-linecap: round;stroke-linejoin: round;stroke-miterlimit: 10.000000;fill: none;"></path>
  <path d="M40.818146 15.000000L46.487350 15.000000L46.487350 9.330795L40.818146 9.330795Z" style="stroke:rgb(0.000000%,0.000000%,0.000000%); stroke-width: 0.500000;stroke-linecap: round;stroke-linejoin: round;stroke-miterlimit: 10.000000;fill: none;"></path>
  <path d="M47.621170 15.000000L53.290375 15.000000L53.290375 9.330795L47.621170 9.330795Z" style="stroke:rgb(0.000000%,0.000000%,0.000000%); stroke-width: 0.500000;stroke-linecap: round;stroke-linejoin: round;stroke-miterlimit: 10.000000;fill: none;"></path>
  <path d="M54.424194 15.000000L60.093399 15.000000L60.093399 9.330795L54.424194 9.330795Z" style="stroke:rgb(0.000000%,0.000000%,0.000000%); stroke-width: 0.500000;stroke-linecap: round;stroke-linejoin: round;stroke-miterlimit: 10.000000;fill: none;"></path>
  <path d="M61.227219 15.000000L66.896423 15.000000L66.896423 9.330795L61.227219 9.330795Z" style="stroke:rgb(0.000000%,0.000000%,0.000000%); stroke-width: 0.500000;stroke-linecap: round;stroke-linejoin: round;stroke-miterlimit: 10.000000;fill: none;"></path>
  <path d="M68.030243 15.000000L73.699448 15.000000L73.699448 9.330795L68.030243 9.330795Z" style="stroke:rgb(0.000000%,0.000000%,0.000000%); stroke-width: 0.500000;stroke-linecap: round;stroke-linejoin: round;stroke-miterlimit: 10.000000;fill: none;"></path>
  <path d="M74.833267 15.000000L80.502472 15.000000L80.502472 9.330795L74.833267 9.330795Z" style="stroke:rgb(0.000000%,0.000000%,0.000000%); stroke-width: 0.500000;stroke-linecap: round;stroke-linejoin: round;stroke-miterlimit: 10.000000;fill: none;"></path>
  <path d="M5.669205 7.913483C16.340561 2.327469,28.206268 -0.590347,40.251236 -0.590347C52.296204 -0.590347,64.161911 2.327469,74.833267 7.913483" style="stroke:rgb(0.000000%,0.000000%,0.000000%); stroke-width: 0.500000;stroke-linecap: round;stroke-linejoin: round;stroke-miterlimit: 10.000000;fill: none;"></path>
  <path d="M70.841400 7.662811C72.172104 7.710587,73.503189 7.794083,74.833267 7.913483C73.977219 6.888535,73.095047 5.888260,72.187897 4.913513Z" style="stroke:rgb(0.000000%,0.000000%,0.000000%); stroke-width: 0.500000;fill: rgb(0.000000%,0.000000%,0.000000%);"></path>
  <path d="M8.314972 4.913116C7.407684 5.887985,6.525375 6.888382,5.669205 7.913483C6.999466 7.794052,8.330750 7.710587,9.661621 7.662811Z" style="stroke:rgb(0.000000%,0.000000%,0.000000%); stroke-width: 0.500000;fill: rgb(0.000000%,0.000000%,0.000000%);"></path>
  <path d="M19.275253 7.913483C25.411118 3.579239,32.738953 1.252136,40.251236 1.252136C47.763519 1.252136,55.091354 3.579239,61.227219 7.913483" style="stroke:rgb(0.000000%,0.000000%,0.000000%); stroke-width: 0.500000;stroke-linecap: round;stroke-linejoin: round;stroke-miterlimit: 10.000000;fill: none;"></path>
  <path d="M57.283005 7.247559C58.604355 7.396469,59.921082 7.618256,61.227219 7.913483C60.512421 6.781128,59.738205 5.693222,58.909164 4.653595Z" style="stroke:rgb(0.000000%,0.000000%,0.000000%); stroke-width: 0.500000;fill: rgb(0.000000%,0.000000%,0.000000%);"></path>
  <path d="M21.593307 4.653595C20.764267 5.693222,19.990051 6.781128,19.275253 7.913483C20.581390 7.618256,21.898117 7.396469,23.219467 7.247559Z" style="stroke:rgb(0.000000%,0.000000%,0.000000%); stroke-width: 0.500000;fill: rgb(0.000000%,0.000000%,0.000000%);"></path>
  <path d="M30.613647 7.913483C33.085938 5.204834,36.583939 3.661575,40.251236 3.661575C43.918533 3.661575,47.416534 5.204834,49.888824 7.913483" style="stroke:rgb(0.000000%,0.000000%,0.000000%); stroke-width: 0.500000;stroke-linecap: round;stroke-linejoin: round;stroke-miterlimit: 10.000000;fill: none;"></path>
  <path d="M46.049545 6.791122C47.366318 6.963928,48.661819 7.338394,49.888824 7.913483C49.427872 6.639206,48.776627 5.458344,47.967728 4.405045Z" style="stroke:rgb(0.000000%,0.000000%,0.000000%); stroke-width: 0.500000;fill: rgb(0.000000%,0.000000%,0.000000%);"></path>
  <path d="M32.534744 4.405045C31.725845 5.458344,31.074600 6.639206,30.613647 7.913483C31.840652 7.338394,33.136154 6.963928,34.452927 6.791122Z" style="stroke:rgb(0.000000%,0.000000%,0.000000%); stroke-width: 0.500000;fill: rgb(0.000000%,0.000000%,0.000000%);"></path>
  <path d="M36.282776 16.417313C36.124023 18.716644,37.946426 20.669220,40.251236 20.669220C42.556046 20.669220,44.378448 18.716644,44.219696 16.417313" style="stroke:rgb(0.000000%,0.000000%,0.000000%); stroke-width: 0.500000;stroke-linecap: round;stroke-linejoin: round;stroke-miterlimit: 10.000000;fill: none;"></path>
  <path d="M43.959961 20.408920C44.726944 19.265167,44.882690 17.749954,44.219696 16.417313C43.746155 17.828415,42.564590 18.789703,41.213501 19.056107Z" style="stroke:rgb(0.000000%,0.000000%,0.000000%); stroke-width: 0.500000;fill: rgb(0.000000%,0.000000%,0.000000%);"></path>
  <path d="M39.288971 19.056107C37.937881 18.789703,36.756317 17.828415,36.282776 16.417313C35.619781 17.749954,35.775528 19.265167,36.542511 20.408920Z" style="stroke:rgb(0.000000%,0.000000%,0.000000%); stroke-width: 0.500000;fill: rgb(0.000000%,0.000000%,0.000000%);"></path>
  <path d="M25.511322 16.417313C29.092758 20.896286,34.516434 23.503830,40.251236 23.503830C45.986038 23.503830,51.409714 20.896286,54.991150 16.417313" style="stroke:rgb(0.000000%,0.000000%,0.000000%); stroke-width: 0.500000;stroke-linecap: round;stroke-linejoin: round;stroke-miterlimit: 10.000000;fill: none;"></path>
  <path d="M53.478104 20.120026C54.106567 18.953506,54.615829 17.713776,54.991150 16.417313C53.809006 17.068634,52.572266 17.585129,51.303024 17.965576Z" style="stroke:rgb(0.000000%,0.000000%,0.000000%); stroke-width: 0.500000;fill: rgb(0.000000%,0.000000%,0.000000%);"></path>
  <path d="M29.199448 17.965576C27.930206 17.585129,26.693466 17.068634,25.511322 16.417313C25.886642 17.713776,26.395905 18.953506,27.024368 20.120026Z" style="stroke:rgb(0.000000%,0.000000%,0.000000%); stroke-width: 0.500000;fill: rgb(0.000000%,0.000000%,0.000000%);"></path>
  <path d="M12.472229 16.417313C20.676254 21.959595,30.350586 24.921143,40.251236 24.921143C50.151886 24.921143,59.826218 21.959595,68.030243 16.417313" style="stroke:rgb(0.000000%,0.000000%,0.000000%); stroke-width: 0.500000;stroke-linecap: round;stroke-linejoin: round;stroke-miterlimit: 10.000000;fill: none;"></path>
  <path d="M65.692184 19.662994C66.512695 18.615707,67.292877 17.533127,68.030243 16.417313C66.719849 16.684891,65.402679 16.898697,64.081924 17.059021Z" style="stroke:rgb(0.000000%,0.000000%,0.000000%); stroke-width: 0.500000;fill: rgb(0.000000%,0.000000%,0.000000%);"></path>
  <path d="M16.420547 17.059021C15.099792 16.898697,13.782623 16.684891,12.472229 16.417313C13.209595 17.533127,13.989777 18.615707,14.810287 19.662994Z" style="stroke:rgb(0.000000%,0.000000%,0.000000%); stroke-width: 0.500000;fill: rgb(0.000000%,0.000000%,0.000000%);"></path>
</svg>
