<?xml version="1.0"?>
<!-- Created by MetaPost 2.00 on 2025.04.20:1949 -->
<svg version="1.1" xmlns="http://www.w3.org/2000/svg" xmlns:xlink="http://www.w3.org/1999/xlink" width="81.002472" height="24.594177" viewBox="0 0 81.002472 24.594177">
<!-- Original BoundingBox: -0.250000 -8.753830 80.752472 15.840347 -->
  <path d="M0.000000 15.000000L5.669205 15.000000L5.669205 9.330795L0.000000 9.330795Z" style="stroke:rgb(0.000000%,0.000000%,0.000000%); stroke-width: 0.500000;stroke-linecap: round;stroke-linejoin: round;stroke-miterlimit: 10.000000;fill: none;"></path>
  <path d="M6.803024 15.000000L12.472229 15.000000L12.472229 9.330795L6.803024 9.330795Z" style="stroke:rgb(0.000000%,0.000000%,0.000000%); stroke-width: 0.500000;stroke-linecap: round;stroke-linejoin: round;stroke-miterlimit: 10.000000;fill: none;"></path>
  <path d="M13.606049 15.000000L19.275253 15.000000L19.275253 9.330795L13.606049 9.330795Z" style="stroke:rgb(0.000000%,0.000000%,0.000000%); stroke-width: 0.500000;stroke-linecap: round;stroke-linejoin: round;stroke-miterlimit: 10.000000;fill: none;"></path>
  <path d="M20.409073 15.000000L26.078278 15.000000L26.078278 9.330795L20.409073 9.330795Z" style="stroke:rgb(0.000000%,0.000000%,0.000000%); stroke-width: 0.500000;stroke-linecap: round;stroke-linejoin: round;stroke-miterlimit: 10.000000;fill: none;"></path>
  <path d="M27.212097 15.000000L32.881302 15.000000L32.881302 9.330795L27.212097 9.330795Z" style="stroke:rgb(0.000000%,0.000000%,0.000000%); stroke-width: 0.500000;stroke-linecap: round;stroke-linejoin: round;stroke-miterlimit: 10.000000;fill: none;"></path>
  <path d="M34.015121 15.000000L39.684326 15.000000L39.684326 9.330795L34.015121 9.330795Z" style="stroke:rgb(0.000000%,0.000000%,0.000000%); stroke-width: 0.500000;stroke-linecap: round;stroke-linejoin: round;stroke-miterlimit: 10.000000;fill: none;"></path>
  <path d="M40.818146 15.000000L46.487350 15.000000L46.487350 9.330795L40.818146 9.330795Z" style="stroke:rgb(0.000000%,0.000000%,0.000000%); stroke-width: 0.500000;stroke-linecap: round;stroke-linejoin: round;stroke-miterlimit: 10.000000;fill: none;"></path>
  <path d="M47.621170 15.000000L53.290375 15.000000L53.290375 9.330795L47.621170 9.330795Z" style="stroke:rgb(0.000000%,0.000000%,0.000000%); stroke-width: 0.500000;stroke-linecap: round;stroke-linejoin: round;stroke-miterlimit: 10.000000;fill: none;"></path>
  <path d="M54.424194 15.000000L60.093399 15.000000L60.093399 9.330795L54.424194 9.330795Z" style="stroke:rgb(0.000000%,0.000000%,0.000000%); stroke-width: 0.500000;stroke-linecap: round;stroke-linejoin: round;stroke-miterlimit: 10.000000;fill: none;"></path>
  <path d="M61.227219 15.000000L66.896423 15.000000L66.896423 9.330795L61.227219 9.330795Z" style="stroke:rgb(0.000000%,0.000000%,0.000000%); stroke-width: 0.500000;stroke-linecap: round;stroke-linejoin: round;stroke-miterlimit: 10.000000;fill: none;"></path>
  <path d="M68.030243 15.000000L73.699448 15.000000L73.699448 9.330795L68.030243 9.330795Z" style="stroke:rgb(0.000000%,0.000000%,0.000000%); stroke-width: 0.500000;stroke-linecap: round;stroke-linejoin: round;stroke-miterlimit: 10.000000;fill: none;"></path>
  <path d="M74.833267 15.000000L80.502472 15.000000L80.502472 9.330795L74.833267 9.330795Z" style="stroke:rgb(0.000000%,0.000000%,0.000000%); stroke-width: 0.500000;stroke-linecap: round;stroke-linejoin: round;stroke-miterlimit: 10.000000;fill: none;"></path>
  <path d="M74.833267 7.913483C65.385376 2.345947,54.619080 -0.590347,43.652756 -0.590347C32.686432 -0.590347,21.920120 2.345947,12.472229 7.913483" style="stroke:rgb(0.000000%,0.000000%,0.000000%); stroke-width: 0.500000;stroke-linecap: round;stroke-linejoin: round;stroke-miterlimit: 10.000000;fill: none;"></path>
  <path d="M14.981735 4.798447C14.113297 5.807327,13.276245 6.846115,12.472229 7.913483C13.795502 7.727280,15.121933 7.584671,16.449387 7.485367Z" style="stroke:rgb(0.000000%,0.000000%,0.000000%); stroke-width: 0.500000;fill: rgb(0.000000%,0.000000%,0.000000%);"></path>
  <path d="M68.030243 7.913483C62.003601 3.316757,54.633850 0.826965,47.054260 0.826965C39.474670 0.826965,32.104919 3.316757,26.078278 7.913483" style="stroke:rgb(0.000000%,0.000000%,0.000000%); stroke-width: 0.500000;stroke-linecap: round;stroke-linejoin: round;stroke-miterlimit: 10.000000;fill: none;"></path>
  <path d="M28.284866 4.577133C27.488693 5.641602,26.751495 6.755173,26.078278 7.913483C27.373383 7.570511,28.682053 7.304382,29.997726 7.114700Z" style="stroke:rgb(0.000000%,0.000000%,0.000000%); stroke-width: 0.500000;fill: rgb(0.000000%,0.000000%,0.000000%);"></path>
  <path d="M62.361038 7.913483C59.449158 4.326950,55.075562 2.244263,50.455780 2.244263C45.835999 2.244263,41.462402 4.326950,38.550507 7.913483" style="stroke:rgb(0.000000%,0.000000%,0.000000%); stroke-width: 0.500000;stroke-linecap: round;stroke-linejoin: round;stroke-miterlimit: 10.000000;fill: none;"></path>
  <path d="M40.181549 4.261200C39.487717 5.390656,38.936493 6.616455,38.550507 7.913483C39.740601 7.269287,40.997147 6.792328,42.286407 6.484314Z" style="stroke:rgb(0.000000%,0.000000%,0.000000%); stroke-width: 0.500000;fill: rgb(0.000000%,0.000000%,0.000000%);"></path>
  <path d="M57.258804 7.913483C57.749268 5.733673,56.091599 3.661575,53.857300 3.661575C51.622986 3.661575,49.965317 5.733673,50.455780 7.913483" style="stroke:rgb(0.000000%,0.000000%,0.000000%); stroke-width: 0.500000;stroke-linecap: round;stroke-linejoin: round;stroke-miterlimit: 10.000000;fill: none;"></path>
  <path d="M50.441620 3.913513C49.642990 5.066437,49.572250 6.660141,50.455780 7.913483C50.717300 6.402481,51.894272 5.325623,53.274231 5.075134Z" style="stroke:rgb(0.000000%,0.000000%,0.000000%); stroke-width: 0.500000;fill: rgb(0.000000%,0.000000%,0.000000%);"></path>
  <path d="M50.455780 10.748093L64.061829 10.748093" style="stroke:rgb(0.000000%,0.000000%,0.000000%); stroke-width: 0.500000;stroke-linecap: round;stroke-linejoin: round;stroke-miterlimit: 10.000000;fill: none;"></path>
  <path d="M60.366272 12.278885L64.061829 10.748093L60.366272 9.217300Z" style="stroke:rgb(0.000000%,0.000000%,0.000000%); stroke-width: 0.500000;fill: rgb(0.000000%,0.000000%,0.000000%);"></path>
  <path d="M43.652756 13.582703L77.100922 13.582703" style="stroke:rgb(0.000000%,0.000000%,0.000000%); stroke-width: 0.500000;stroke-linecap: round;stroke-linejoin: round;stroke-miterlimit: 10.000000;fill: none;"></path>
  <path d="M73.405563 15.113403L77.100922 13.582703L73.405563 12.052002Z" style="stroke:rgb(0.000000%,0.000000%,0.000000%); stroke-width: 0.500000;fill: rgb(0.000000%,0.000000%,0.000000%);"></path>
  <path d="M9.637634 16.417313C7.349823 19.271118,9.381516 23.503830,13.039154 23.503830C16.696793 23.503830,18.728470 19.271118,16.440659 16.417313" style="stroke:rgb(0.000000%,0.000000%,0.000000%); stroke-width: 0.500000;stroke-linecap: round;stroke-linejoin: round;stroke-miterlimit: 10.000000;fill: none;"></path>
  <path d="M18.673859 19.735825C18.526794 18.420013,17.790894 17.159042,16.440659 16.417313C16.870911 17.896561,16.499603 19.308563,15.673157 20.342941Z" style="stroke:rgb(0.000000%,0.000000%,0.000000%); stroke-width: 0.500000;fill: rgb(0.000000%,0.000000%,0.000000%);"></path>
  <path d="M16.440659 16.417313C16.282776 20.283417,19.374359 23.503830,23.243683 23.503830C27.113007 23.503830,30.204590 20.283417,30.046707 16.417313" style="stroke:rgb(0.000000%,0.000000%,0.000000%); stroke-width: 0.500000;stroke-linecap: round;stroke-linejoin: round;stroke-miterlimit: 10.000000;fill: none;"></path>
  <path d="M30.587494 20.380646C30.802139 19.081955,30.643265 17.706055,30.046707 16.417313C29.557236 17.750397,28.696640 18.835648,27.626556 19.602173Z" style="stroke:rgb(0.000000%,0.000000%,0.000000%); stroke-width: 0.500000;fill: rgb(0.000000%,0.000000%,0.000000%);"></path>
  <path d="M23.243683 16.417313C24.832077 20.678314,28.900787 23.503830,33.448227 23.503830C37.995651 23.503830,42.064377 20.678314,43.652756 16.417313" style="stroke:rgb(0.000000%,0.000000%,0.000000%); stroke-width: 0.500000;stroke-linecap: round;stroke-linejoin: round;stroke-miterlimit: 10.000000;fill: none;"></path>
  <path d="M43.060242 20.373138C43.492432 19.126465,43.702011 17.789062,43.652756 16.417313C42.717606 17.422089,41.623688 18.219574,40.436554 18.795471Z" style="stroke:rgb(0.000000%,0.000000%,0.000000%); stroke-width: 0.500000;fill: rgb(0.000000%,0.000000%,0.000000%);"></path>
  <path d="M30.046707 16.417313C33.153671 20.858521,38.232651 23.503830,43.652756 23.503830C49.072861 23.503830,54.151840 20.858521,57.258804 16.417313" style="stroke:rgb(0.000000%,0.000000%,0.000000%); stroke-width: 0.500000;stroke-linecap: round;stroke-linejoin: round;stroke-miterlimit: 10.000000;fill: none;"></path>
  <path d="M55.930832 20.190445C56.517670 19.003754,56.966446 17.738724,57.258804 16.417313C56.117691 17.144943,54.905823 17.722107,53.651749 18.146225Z" style="stroke:rgb(0.000000%,0.000000%,0.000000%); stroke-width: 0.500000;fill: rgb(0.000000%,0.000000%,0.000000%);"></path>
  <path d="M36.849731 16.417313C41.347275 20.952682,47.470001 23.503830,53.857300 23.503830C60.244583 23.503830,66.367310 20.952682,70.864853 16.417313" style="stroke:rgb(0.000000%,0.000000%,0.000000%); stroke-width: 0.500000;stroke-linecap: round;stroke-linejoin: round;stroke-miterlimit: 10.000000;fill: none;"></path>
  <path d="M69.045822 19.979935C69.745895 18.852570,70.355469 17.661774,70.864853 16.417313C69.624695 16.937073,68.351639 17.348053,67.059433 17.650162Z" style="stroke:rgb(0.000000%,0.000000%,0.000000%); stroke-width: 0.500000;fill: rgb(0.000000%,0.000000%,0.000000%);"></path>
</svg>
